<svg width="26" height="27" viewBox="0 0 26 27" fill="none" xmlns="http://www.w3.org/2000/svg">
<path opacity="0.4" d="M13.4781 2.08887C15.4149 2.08885 16.949 2.08884 18.1497 2.25026C19.3853 2.41638 20.3854 2.76641 21.1741 3.55511C21.9629 4.34383 22.3129 5.34394 22.479 6.57956C22.6404 7.78018 22.6403 9.31427 22.6403 11.2511V15.5857C22.6403 17.5224 22.6404 19.0566 22.479 20.2572C22.3129 21.4928 21.9629 22.493 21.1741 23.2818C20.3854 24.0704 19.3853 24.4204 18.1497 24.5866C16.949 24.748 15.4149 24.748 13.4781 24.748H12.3053C10.3686 24.748 8.83436 24.748 7.63372 24.5866C6.39808 24.4204 5.39797 24.0704 4.60926 23.2817C3.82055 22.493 3.47054 21.4928 3.30442 20.2572C3.143 19.0566 3.14304 17.5224 3.14307 15.5857L3.14311 11.2511C3.14311 9.31423 3.14311 7.78014 3.30454 6.57952C3.47068 5.34389 3.8207 4.3438 4.60941 3.5551C5.39811 2.7664 6.39821 2.41638 7.63384 2.25025C8.83445 2.08884 10.3685 2.08885 12.3053 2.08887H13.4781Z" fill="#FF8447"/>
<path fill-rule="evenodd" clip-rule="evenodd" d="M7.62207 8.14913C7.62207 7.56707 8.09393 7.09521 8.67598 7.09521H17.1073C17.6893 7.09521 18.1612 7.56707 18.1612 8.14913C18.1612 8.73118 17.6893 9.20304 17.1073 9.20304H8.67598C8.09393 9.20304 7.62207 8.73118 7.62207 8.14913ZM7.62207 13.4187C7.62207 12.8366 8.09393 12.3648 8.67598 12.3648H17.1073C17.6893 12.3648 18.1612 12.8366 18.1612 13.4187C18.1612 14.0008 17.6893 14.4726 17.1073 14.4726H8.67598C8.09393 14.4726 7.62207 14.0008 7.62207 13.4187ZM7.62207 18.6882C7.62207 18.1062 8.09393 17.6343 8.67598 17.6343H12.8916C13.4737 17.6343 13.9455 18.1062 13.9455 18.6882C13.9455 19.2703 13.4737 19.7421 12.8916 19.7421H8.67598C8.09392 19.7421 7.62207 19.2703 7.62207 18.6882Z" fill="#FF8447"/>
</svg>
