<svg width="12" height="12" viewBox="0 0 12 12" fill="none" xmlns="http://www.w3.org/2000/svg">
<path fill-rule="evenodd" clip-rule="evenodd" d="M8.54202 3.67088C8.75337 4.25367 8.89258 4.85836 8.89258 5.45492C8.89258 6.93349 8.06615 8.05399 7.2973 8.78013C8.12563 8.80079 9.20835 8.63678 10.0342 7.81988C11.5718 6.29874 11.625 3.09811 11.625 3.09811C11.625 3.09811 10.0259 3.12628 8.54202 3.67088ZM3.45799 3.67088C1.97408 3.12628 0.375 3.09811 0.375 3.09811C0.375 3.09811 0.428155 6.29874 1.96585 7.81988C2.79102 8.63678 3.87437 8.80079 4.7027 8.78013C3.93322 8.05399 3.10742 6.93349 3.10742 5.45492C3.10742 4.85836 3.24663 4.25367 3.45799 3.67088ZM8.25002 5.29572C8.25002 3.14423 5.99979 0.84375 5.99979 0.84375C5.99979 0.84375 3.75019 3.14423 3.75019 5.29572C3.75019 6.69604 4.70192 7.68508 5.36699 8.20715V11.625H6.63259V8.20715C7.29829 7.68508 8.25002 6.69604 8.25002 5.29572Z" fill="#4CD964"/>
</svg>
