<svg width="26" height="26" viewBox="0 0 26 26" fill="none" xmlns="http://www.w3.org/2000/svg">
<path fill-rule="evenodd" clip-rule="evenodd" d="M18.1611 1.46326C14.8143 1.46326 12.1011 4.1764 12.1011 7.52325C12.1011 10.87 14.8143 13.5832 18.1611 13.5832C21.5079 13.5832 24.2211 10.87 24.2211 7.52325C24.2211 4.1764 21.5079 1.46326 18.1611 1.46326ZM20.5328 6.68767C20.9442 6.54194 21.1598 6.09021 21.014 5.67871C20.8682 5.26721 20.4165 5.05177 20.005 5.19751C19.4969 5.37747 19.0252 5.71457 18.6259 6.06464C18.2186 6.42191 17.841 6.83371 17.5231 7.21472C17.369 7.39937 17.2268 7.57953 17.0996 7.74659C17.0066 7.65957 16.9134 7.5861 16.821 7.52448L16.8155 7.52083C16.6487 7.40952 16.4244 7.25998 16.0532 7.25998C15.6167 7.25998 15.2628 7.61387 15.2628 8.05041C15.2628 8.44533 15.5524 8.77261 15.9309 8.83143C15.9896 8.87057 16.1836 9.02464 16.4002 9.45782C16.5276 9.71262 16.7822 9.87916 17.0667 9.89372C17.3511 9.90829 17.6217 9.76827 17.7745 9.52792C17.9461 9.28484 18.4519 8.56915 18.737 8.22742C19.0236 7.88386 19.3434 7.53817 19.6684 7.2532C20.0015 6.96106 20.2969 6.7712 20.5328 6.68767Z" fill="#68CDFF"/>
<path opacity="0.4" d="M13.5054 1.46414C11.6901 2.86109 10.5203 5.05556 10.5203 7.52325C10.5203 11.7432 13.9411 15.1641 18.1611 15.1641C19.6076 15.1641 20.9602 14.7621 22.1133 14.0639V14.9631C22.1133 16.8974 22.1133 18.4341 21.942 19.6377C21.7649 20.8819 21.391 21.8853 20.5582 22.6718C19.7319 23.4523 18.6882 23.7972 17.393 23.9617C16.1277 24.1223 14.5084 24.1223 12.4524 24.1223H11.2229C9.16689 24.1223 7.54761 24.1223 6.28232 23.9617C4.98709 23.7972 3.94348 23.4523 3.11708 22.6718C2.2843 21.8853 1.91044 20.8819 1.73333 19.6377C1.56198 18.4341 1.56199 16.8974 1.56201 14.9631V10.6225C1.56199 8.68826 1.56198 7.15152 1.73333 5.94787C1.91044 4.7037 2.2843 3.70028 3.11708 2.91377C3.94348 2.13328 4.98709 1.78836 6.28232 1.62389C7.54761 1.46324 9.16687 1.46325 11.2229 1.46326H12.4524C12.8169 1.46326 13.1678 1.46326 13.5054 1.46414Z" fill="#68CDFF"/>
<path fill-rule="evenodd" clip-rule="evenodd" d="M5.51416 13.8466C5.51416 13.2646 5.98602 12.7927 6.56807 12.7927H9.84389C10.426 12.7927 10.8979 13.2646 10.8979 13.8466C10.8979 14.4287 10.426 14.9005 9.84389 14.9005H6.56807C5.98602 14.9005 5.51416 14.4287 5.51416 13.8466Z" fill="#68CDFF"/>
<path fill-rule="evenodd" clip-rule="evenodd" d="M5.51416 18.0622C5.51416 17.4801 5.98602 17.0083 6.56807 17.0083H14.9994C15.5814 17.0083 16.0533 17.4801 16.0533 18.0622C16.0533 18.6443 15.5814 19.1161 14.9994 19.1161H6.56807C5.98602 19.1161 5.51416 18.6443 5.51416 18.0622Z" fill="#68CDFF"/>
</svg>
