<svg width="65" height="63" viewBox="0 0 65 63" fill="none" xmlns="http://www.w3.org/2000/svg">
<path d="M55.3051 15.9376H65L64.9964 63.0036H55.3015L55.3051 15.9376ZM35.7869 15.9519L26.9199 15.934L24.2545 23.0269C24.4828 25.6401 25.118 28.684 26.4311 30.9777C29.0501 35.5436 34.8949 35.9887 39.5657 36.7318C40.026 36.7928 40.108 37.324 39.6299 37.4425C34.9698 38.2071 29.1072 38.6199 26.4632 43.1642C24.7433 46.122 24.3223 49.9951 23.8798 53.3406H39.8511L43.0804 63H53.2034L35.7798 15.9519H35.7869ZM22.8557 53.6708C22.9057 53.5236 23.0127 53.4159 23.077 53.2795C22.556 49.2449 21.9922 43.7601 18.688 40.9674C18.4918 40.8023 18.06 40.4074 17.8209 40.4362L9.48202 63.0036H19.7799C20.8147 59.8986 21.8067 56.7757 22.8522 53.6708H22.8557ZM16.3865 21.7383C18.5453 20.464 21.3107 20.2271 23.7371 19.8286L23.8905 19.624L23.8049 19.3548C22.7701 19.0461 21.6282 18.9851 20.5506 18.7661C15.5658 17.7646 13.846 16.1099 12.8254 11.0845C12.6114 10.0292 12.4758 8.95231 12.3437 7.87904C12.2617 7.60264 11.8121 7.50214 11.7514 7.86109C11.2376 10.9337 10.97 14.9863 8.25098 16.9857C6.93788 17.9513 5.14308 18.4431 3.56236 18.7661C3.08422 18.863 0.386631 19.2148 0.247471 19.3404C0.10831 19.4661 0.186828 19.764 0.375943 19.8286C1.67121 20.0189 2.98072 20.1912 4.25815 20.4855C8.71485 21.5229 10.2314 23.271 11.1841 27.7435C11.3982 28.745 11.441 30.2993 11.7193 31.1572C11.7621 31.29 11.8085 31.4013 11.9477 31.4587L12.251 31.4121C12.9182 27.9948 13.0431 23.7053 16.3794 21.7383H16.3865ZM22.9699 0.0897385C22.7629 0.883027 22.7166 1.72657 22.5167 2.53063C21.8316 5.24432 20.6577 5.83659 18.0565 6.38579C17.7817 6.44322 16.2866 6.53655 16.2938 6.80577C16.3794 6.90986 16.4864 6.97089 16.6185 7.00319C18.1992 7.40522 19.7692 7.23651 21.1394 8.42824C22.6844 9.77073 22.3847 11.6588 22.9128 13.3172C23.0091 13.6259 23.1269 13.7802 23.2768 13.389C23.4516 12.9403 23.4659 12.1039 23.5801 11.587C24.4043 7.88263 26.1242 7.40522 29.6746 7.00678L29.9101 6.71962C28.5327 6.32477 27.0341 6.33913 25.746 5.63558C23.762 4.55513 23.5515 2.02091 23.2732 0L22.9699 0.0897385Z" fill="url(#paint0_linear_6_21162)"/>
<defs>
<linearGradient id="paint0_linear_6_21162" x1="12.0512" y1="8.07646" x2="63.9437" y2="63.9446" gradientUnits="userSpaceOnUse">
<stop stop-color="#20F4FF"/>
<stop offset="0.440371" stop-color="#2136F9"/>
<stop offset="1" stop-color="#FC32FF"/>
</linearGradient>
</defs>
</svg>
