<svg width="27" height="26" viewBox="0 0 27 26" fill="none" xmlns="http://www.w3.org/2000/svg">
<path opacity="0.4" d="M19.2651 8.39591C19.0593 8.39591 18.8535 8.32008 18.691 8.15758C18.3768 7.84341 18.3768 7.32342 18.691 7.00925L20.9118 4.78841C19.0051 3.16341 16.546 2.16675 13.8485 2.16675C7.86847 2.16675 3.01514 7.02008 3.01514 13.0001C3.01514 18.9801 7.86847 23.8334 13.8485 23.8334C19.8285 23.8334 24.6818 18.9801 24.6818 13.0001C24.6818 10.3026 23.6851 7.84342 22.0601 5.93675L19.8393 8.15758C19.6768 8.32008 19.471 8.39591 19.2651 8.39591Z" fill="#FF4437"/>
<path d="M15.7443 12.805L14.661 12.4258V10.0208H14.7476C15.3001 10.0208 15.7443 10.5083 15.7443 11.1042C15.7443 11.5483 16.1126 11.9167 16.5568 11.9167C17.001 11.9167 17.3693 11.5483 17.3693 11.1042C17.3693 9.60917 16.1993 8.39583 14.7476 8.39583H14.661V8.125C14.661 7.68083 14.2926 7.3125 13.8485 7.3125C13.4043 7.3125 13.036 7.68083 13.036 8.125V8.39583H12.711C11.4001 8.39583 10.3276 9.50083 10.3276 10.8658C10.3276 12.4475 11.2485 12.9567 11.9526 13.2058L13.036 13.585V15.99H12.9493C12.3968 15.99 11.9526 15.5025 11.9526 14.9067C11.9526 14.4625 11.5843 14.0942 11.1401 14.0942C10.696 14.0942 10.3276 14.4625 10.3276 14.9067C10.3276 16.4017 11.4977 17.615 12.9493 17.615H13.036V17.8858C13.036 18.33 13.4043 18.6983 13.8485 18.6983C14.2926 18.6983 14.661 18.33 14.661 17.8858V17.615H14.986C16.2968 17.615 17.3693 16.51 17.3693 15.145C17.3693 13.5525 16.4485 13.0433 15.7443 12.805ZM12.4835 11.6567C12.1151 11.5267 11.9526 11.4508 11.9526 10.855C11.9526 10.3892 12.2993 10.01 12.711 10.01H13.036V11.8408L12.4835 11.6567ZM14.986 15.9792H14.661V14.1483L15.2135 14.3433C15.5818 14.4733 15.7443 14.5492 15.7443 15.145C15.7443 15.6 15.3976 15.9792 14.986 15.9792Z" fill="#FF4437"/>
<path d="M25.4296 1.85243C25.3429 1.65743 25.1912 1.49493 24.9854 1.40827C24.8879 1.36493 24.7796 1.34326 24.6712 1.34326H20.3379C19.8937 1.34326 19.5254 1.7116 19.5254 2.15576C19.5254 2.59993 19.8937 2.96826 20.3379 2.96826H22.7104L20.9012 4.77743C21.3129 5.13493 21.6921 5.5141 22.0496 5.92577L23.8587 4.1166V6.49993C23.8587 6.9441 24.2271 7.31243 24.6712 7.31243C25.1154 7.31243 25.4837 6.9441 25.4837 6.49993V2.1666C25.4946 2.05826 25.4729 1.96076 25.4296 1.85243Z" fill="#FF4437"/>
</svg>
