<svg width="27" height="26" viewBox="0 0 27 26" fill="none" xmlns="http://www.w3.org/2000/svg">
<path opacity="0.4" d="M21.1348 6.77093H22.6081C22.4023 6.47843 22.1856 6.2076 21.9581 5.93677L21.1348 6.77093Z" fill="#D64BC2"/>
<path opacity="0.4" d="M20.8205 4.78843C20.5496 4.56093 20.2788 4.34426 19.9863 4.13843V5.61176L20.8205 4.78843Z" fill="#D64BC2"/>
<path opacity="0.4" d="M19.1738 8.39591C19.0655 8.39591 18.968 8.37425 18.8597 8.33092C18.6647 8.24425 18.5021 8.09258 18.4155 7.88675C18.3721 7.78925 18.3505 7.68091 18.3505 7.57258V3.23925C18.3505 3.22841 18.3613 3.21758 18.3613 3.19591C16.9638 2.54591 15.4038 2.16675 13.7572 2.16675C7.77716 2.16675 2.92383 7.02008 2.92383 13.0001C2.92383 18.9801 7.77716 23.8334 13.7572 23.8334C19.7372 23.8334 24.5905 18.9801 24.5905 13.0001C24.5905 11.3534 24.2113 9.79341 23.5505 8.38508C23.5397 8.38508 23.5288 8.39591 23.5072 8.39591H19.1738Z" fill="#D64BC2"/>
<path d="M21.9691 5.93673L25.165 2.74089C25.4791 2.42672 25.4791 1.90673 25.165 1.59256C24.8508 1.27839 24.3308 1.27839 24.0166 1.59256L20.8208 4.78839C21.2325 5.14589 21.6116 5.53589 21.9691 5.93673Z" fill="#D64BC2"/>
<path d="M19.9867 3.25C19.9867 2.80583 19.6184 2.4375 19.1742 2.4375C18.7409 2.4375 18.3942 2.78417 18.3726 3.20667C18.9359 3.4775 19.4775 3.78083 19.9867 4.13833V3.25Z" fill="#D64BC2"/>
<path d="M24.3201 7.58325C24.3201 7.13909 23.9517 6.77075 23.5076 6.77075H22.6084C22.9659 7.27992 23.28 7.82158 23.54 8.38492C23.9734 8.36325 24.3201 8.01659 24.3201 7.58325Z" fill="#D64BC2"/>
<path d="M15.653 12.805L14.5697 12.4258V10.0208H14.6563C15.2088 10.0208 15.653 10.5083 15.653 11.1042C15.653 11.5483 16.0213 11.9167 16.4655 11.9167C16.9097 11.9167 17.278 11.5483 17.278 11.1042C17.278 9.60917 16.108 8.39583 14.6563 8.39583H14.5697V8.125C14.5697 7.68083 14.2013 7.3125 13.7572 7.3125C13.313 7.3125 12.9447 7.68083 12.9447 8.125V8.39583H12.6197C11.3088 8.39583 10.2363 9.50083 10.2363 10.8658C10.2363 12.4475 11.1572 12.9567 11.8613 13.2058L12.9447 13.585V15.99H12.858C12.3055 15.99 11.8613 15.5025 11.8613 14.9067C11.8613 14.4625 11.493 14.0942 11.0488 14.0942C10.6047 14.0942 10.2363 14.4625 10.2363 14.9067C10.2363 16.4017 11.4063 17.615 12.858 17.615H12.9447V17.8858C12.9447 18.33 13.313 18.6983 13.7572 18.6983C14.2013 18.6983 14.5697 18.33 14.5697 17.8858V17.615H14.8946C16.2055 17.615 17.278 16.51 17.278 15.145C17.278 13.5525 16.3572 13.0433 15.653 12.805ZM12.3922 11.6567C12.0238 11.5267 11.8613 11.4508 11.8613 10.855C11.8613 10.3892 12.208 10.01 12.6197 10.01H12.9447V11.8408L12.3922 11.6567ZM14.8946 15.9792H14.5697V14.1483L15.1222 14.3433C15.4905 14.4733 15.653 14.5492 15.653 15.145C15.653 15.6 15.3063 15.9792 14.8946 15.9792Z" fill="#D64BC2"/>
</svg>
