<svg width="27" height="26" viewBox="0 0 27 26" fill="none" xmlns="http://www.w3.org/2000/svg">
<path d="M23.0204 8.66659H19.8354C18.4596 8.66659 17.6362 7.84325 17.6362 6.46742V3.28242C17.6362 1.90659 18.4596 1.08325 19.8354 1.08325H23.0204C24.3962 1.08325 25.2196 1.90659 25.2196 3.28242V6.46742C25.2196 7.84325 24.3962 8.66659 23.0204 8.66659ZM23.2587 5.08075C23.1287 4.95075 22.9554 4.88575 22.7821 4.88575C22.6087 4.88575 22.4354 4.95075 22.3054 5.08075L22.1104 5.27575V2.84909C22.1104 2.46992 21.8071 2.16659 21.4279 2.16659C21.0487 2.16659 20.7454 2.46992 20.7454 2.84909V5.27575L20.5504 5.08075C20.2904 4.82075 19.8571 4.82075 19.5971 5.08075C19.3371 5.34075 19.3371 5.77409 19.5971 6.03409L20.9512 7.38825C21.0054 7.44242 21.0812 7.48575 21.1571 7.51825C21.1787 7.52909 21.2004 7.52909 21.2221 7.53992C21.2762 7.56159 21.3304 7.57242 21.3954 7.57242C21.4171 7.57242 21.4387 7.57242 21.4604 7.57242C21.5362 7.57242 21.6012 7.56159 21.6771 7.52909C21.6879 7.52909 21.6879 7.52909 21.6987 7.52909C21.7746 7.49659 21.8396 7.45325 21.8937 7.39909C21.9046 7.38825 21.9046 7.38825 21.9154 7.38825L23.2696 6.03409C23.5296 5.77409 23.5296 5.34075 23.2587 5.08075Z" fill="#27C153"/>
<path opacity="0.4" d="M24.1359 8.41752V9.75002H2.46924V8.16835C2.46924 5.68752 4.48424 3.68335 6.96507 3.68335H17.6359V6.46752C17.6359 7.84335 18.4592 8.66668 19.8351 8.66668H23.0201C23.4534 8.66668 23.8217 8.59085 24.1359 8.41752Z" fill="#27C153"/>
<path d="M2.46924 9.75V17.8317C2.46924 20.3125 4.48424 22.3167 6.96507 22.3167H19.6401C22.1209 22.3167 24.1359 20.3125 24.1359 17.8317V9.75H2.46924ZM8.96924 18.6875H6.80257C6.3584 18.6875 5.99007 18.3192 5.99007 17.875C5.99007 17.4308 6.3584 17.0625 6.80257 17.0625H8.96924C9.4134 17.0625 9.78174 17.4308 9.78174 17.875C9.78174 18.3192 9.4134 18.6875 8.96924 18.6875ZM16.0109 18.6875H11.6776C11.2334 18.6875 10.8651 18.3192 10.8651 17.875C10.8651 17.4308 11.2334 17.0625 11.6776 17.0625H16.0109C16.4551 17.0625 16.8234 17.4308 16.8234 17.875C16.8234 18.3192 16.4551 18.6875 16.0109 18.6875Z" fill="#27C153"/>
</svg>
