<svg width="27" height="26" viewBox="0 0 27 26" fill="none" xmlns="http://www.w3.org/2000/svg">
<path d="M5.81136 16.25C4.79303 16.25 3.85053 16.6075 3.10303 17.2033C2.10636 17.9942 1.47803 19.2183 1.47803 20.5833C1.47803 21.3958 1.70553 22.165 2.10636 22.815C2.85386 24.0717 4.22969 24.9167 5.81136 24.9167C6.90553 24.9167 7.9022 24.5158 8.66053 23.8333C8.99637 23.5517 9.28886 23.205 9.51636 22.815C9.91719 22.165 10.1447 21.3958 10.1447 20.5833C10.1447 18.1892 8.20553 16.25 5.81136 16.25ZM8.05387 20.1175L5.74636 22.2516C5.5947 22.3925 5.38885 22.4683 5.19385 22.4683C4.98802 22.4683 4.78219 22.3925 4.61969 22.23L3.5472 21.1575C3.23303 20.8434 3.23303 20.3233 3.5472 20.0091C3.86136 19.695 4.38136 19.695 4.69553 20.0091L5.21552 20.5292L6.94886 18.9258C7.27386 18.6225 7.79386 18.6442 8.0972 18.9692C8.40053 19.2942 8.37887 19.8142 8.05387 20.1175Z" fill="#F49A40"/>
<path opacity="0.4" d="M21.498 14.0291H23.6864V12.4691C23.6864 10.2266 21.8555 8.39575 19.613 8.39575H7.17635C4.93385 8.39575 3.10303 10.2266 3.10303 12.4691V17.2033C3.85053 16.6074 4.79303 16.2499 5.81136 16.2499C8.20553 16.2499 10.1447 18.1891 10.1447 20.5833C10.1447 21.3958 9.91719 22.1649 9.51636 22.8149C9.28886 23.2049 8.99637 23.5516 8.66053 23.8333H19.613C21.8555 23.8333 23.6864 22.0024 23.6864 19.7599V18.4707H21.628C20.458 18.4707 19.3855 17.6149 19.288 16.4449C19.223 15.7624 19.483 15.1232 19.938 14.6791C20.3389 14.2674 20.8914 14.0291 21.498 14.0291Z" fill="#F49A40"/>
<path d="M16.4822 4.27918V8.39583H7.17635C4.93385 8.39583 3.10303 10.2267 3.10303 12.4692V8.49336C3.10303 7.20419 3.89386 6.05581 5.09636 5.60081L13.698 2.35081C15.0414 1.85248 16.4822 2.83834 16.4822 4.27918Z" fill="#F49A40"/>
<path d="M24.8344 15.1343V17.366C24.8344 17.9618 24.3577 18.4493 23.751 18.4709H21.6277C20.4577 18.4709 19.3852 17.6151 19.2877 16.4451C19.2227 15.7626 19.4827 15.1234 19.9377 14.6793C20.3385 14.2676 20.891 14.0293 21.4977 14.0293H23.751C24.3577 14.051 24.8344 14.5384 24.8344 15.1343Z" fill="#F49A40"/>
<path d="M15.5614 13.8125H7.97803C7.53386 13.8125 7.16553 13.4442 7.16553 13C7.16553 12.5558 7.53386 12.1875 7.97803 12.1875H15.5614C16.0055 12.1875 16.3739 12.5558 16.3739 13C16.3739 13.4442 16.0055 13.8125 15.5614 13.8125Z" fill="#F49A40"/>
</svg>
