<svg width="21" height="23" viewBox="0 0 21 23" fill="none" xmlns="http://www.w3.org/2000/svg">
<path d="M0.000488281 20.105V2.34375C0.000488281 1.5625 0.208008 0.976562 0.623047 0.585938C1.03809 0.195312 1.53451 0 2.1123 0C2.61686 0 3.11328 0.138346 3.60156 0.415039L18.3721 9.0332C18.9336 9.35872 19.3527 9.68831 19.6294 10.022C19.9061 10.3475 20.0444 10.7503 20.0444 11.2305C20.0444 11.6943 19.9061 12.0972 19.6294 12.439C19.3527 12.7726 18.9336 13.0981 18.3721 13.4155L3.60156 22.0337C3.11328 22.3185 2.61686 22.4609 2.1123 22.4609C1.53451 22.4609 1.03809 22.2616 0.623047 21.8628C0.208008 21.4722 0.000488281 20.8862 0.000488281 20.105Z" fill="white"/>
</svg>
