<svg width="17" height="17" viewBox="0 0 17 17" fill="none" xmlns="http://www.w3.org/2000/svg">
<path d="M16.3708 0.755305C16.0024 0.358542 15.4248 0.209931 14.8729 0.156736C14.293 0.100846 13.5985 0.138017 12.8508 0.236091C11.3513 0.432781 9.53957 0.888074 7.79926 1.44827C6.05786 2.00881 4.36038 2.68326 3.08914 3.32943C2.45646 3.65101 1.90772 3.9764 1.5088 4.28895C1.31016 4.44458 1.1289 4.61222 0.992553 4.79064C0.862503 4.96082 0.725682 5.20295 0.727558 5.49484C0.7325 6.26101 1.25428 6.80249 1.80993 7.16592C2.37708 7.53692 3.11572 7.81649 3.85001 8.03544C4.59219 8.25677 5.37266 8.42827 6.04361 8.56731C6.08759 8.57637 6.17548 8.59458 6.28317 8.61681C6.68874 8.70059 6.89152 8.74252 7.08215 8.68546C7.27276 8.62839 7.41936 8.48187 7.71241 8.18875L10.6136 5.2876C10.9214 4.9798 11.4205 4.9798 11.7283 5.2876C12.0361 5.59541 12.0361 6.09446 11.7283 6.40226L9.02276 9.10777C8.72396 9.40656 8.5746 9.55593 8.51809 9.74982C8.46149 9.94371 8.50713 10.1495 8.59832 10.5612C8.95174 12.157 9.25866 13.4757 9.56487 14.3629C9.74371 14.881 9.94493 15.3296 10.1997 15.6604C10.4657 16.0056 10.8275 16.2664 11.3036 16.2875C11.6 16.3006 11.8465 16.1652 12.0155 16.0396C12.1936 15.9073 12.3611 15.7298 12.5164 15.5359C12.8286 15.1459 13.1565 14.6063 13.4828 13.9827C14.1386 12.7295 14.833 11.0491 15.4206 9.3205C16.0079 7.59257 16.4972 5.79023 16.733 4.29229C16.8506 3.54525 16.9087 2.85147 16.8764 2.27035C16.8458 1.71924 16.7283 1.14032 16.3708 0.755305Z" fill="url(#paint0_linear_6_21103)"/>
<defs>
<linearGradient id="paint0_linear_6_21103" x1="3.68734" y1="2.20188" x2="17.0181" y2="16.1511" gradientUnits="userSpaceOnUse">
<stop stop-color="#20F4FF"/>
<stop offset="0.440371" stop-color="#2136F9"/>
<stop offset="1" stop-color="#FC32FF"/>
</linearGradient>
</defs>
</svg>
