<svg width="27" height="26" viewBox="0 0 27 26" fill="none" xmlns="http://www.w3.org/2000/svg">
<path d="M10.9256 9.10404C10.9256 10.2682 9.9819 11.2119 8.81778 11.2119C7.65366 11.2119 6.70996 10.2682 6.70996 9.10404C6.70996 7.93992 7.65366 6.99622 8.81778 6.99622C9.9819 6.99622 10.9256 7.93992 10.9256 9.10404Z" fill="#6895FF"/>
<path d="M20.4113 1.46326C20.742 1.46326 21.0378 1.66919 21.1526 1.97938L21.4244 2.71399C21.8059 3.74508 21.9276 4.02522 22.128 4.22562C22.3284 4.42602 22.6086 4.54771 23.6397 4.92924L24.3743 5.20107C24.6844 5.31585 24.8904 5.61163 24.8904 5.94238C24.8904 6.27313 24.6844 6.56891 24.3743 6.68369L23.6397 6.95551C22.6086 7.33705 22.3284 7.45874 22.128 7.65914C21.9276 7.85954 21.8059 8.13968 21.4244 9.17077L21.1526 9.90538C21.0378 10.2156 20.742 10.4215 20.4113 10.4215C20.0805 10.4215 19.7847 10.2156 19.6699 9.90538L19.3981 9.17077C19.0166 8.13968 18.8949 7.85954 18.6945 7.65914C18.4941 7.45874 18.214 7.33705 17.1828 6.95551L16.4482 6.68369C16.1381 6.56891 15.9321 6.27313 15.9321 5.94238C15.9321 5.61163 16.1381 5.31585 16.4482 5.20107L17.1828 4.92924C18.214 4.54771 18.4941 4.42602 18.6945 4.22562C18.8949 4.02522 19.0166 3.74508 19.3981 2.71399L19.6699 1.97938C19.7847 1.66919 20.0805 1.46326 20.4113 1.46326Z" fill="#6895FF"/>
<path opacity="0.4" fill-rule="evenodd" clip-rule="evenodd" d="M13.0351 2.51709H12.9569C10.7183 2.51707 8.93355 2.51705 7.53422 2.70518C6.08937 2.89944 4.90232 3.31108 3.96363 4.24976C3.02494 5.18845 2.61331 6.3755 2.41905 7.82035C2.23092 9.21968 2.23094 11.0043 2.23096 13.2431V13.3963C2.23094 15.635 2.23092 17.4197 2.41905 18.819C2.61331 20.2639 3.02494 21.4509 3.96363 22.3896C4.90232 23.3283 6.08937 23.7399 7.53422 23.9341C8.93356 24.1223 10.7183 24.1223 12.957 24.1223H13.1102C15.3488 24.1223 17.1336 24.1223 18.5329 23.9341C19.9778 23.7399 21.1648 23.3283 22.1035 22.3896C23.0421 21.4509 23.4538 20.2639 23.648 18.819C23.8361 17.4197 23.8361 15.6349 23.8361 13.3963V13.3183C23.8361 12.7734 23.8361 12.2577 23.8337 11.7714C23.831 11.2032 23.3681 10.7449 22.7998 10.7476C22.2317 10.7505 21.7733 11.2133 21.7762 11.7815C21.7785 12.2622 21.7785 12.7731 21.7785 13.3197C21.7785 13.6348 21.7785 13.9374 21.778 14.2282C15.3575 11.0972 10.7264 16.6716 6.62169 21.6407C6.0956 21.4693 5.72157 21.2376 5.4186 20.9346C4.92595 20.442 4.62191 19.7615 4.45834 18.5449C4.29078 17.2985 4.28859 15.6525 4.28859 13.3197C4.28859 10.9868 4.29078 9.34081 4.45834 8.09453C4.62191 6.87785 4.92595 6.19738 5.4186 5.70473C5.91125 5.21208 6.59172 4.90805 7.80839 4.74447C9.05467 4.57692 10.7008 4.57473 13.0335 4.57473C13.5801 4.57473 14.091 4.57473 14.5717 4.5771C15.1399 4.5799 15.6028 4.12155 15.6056 3.55336C15.6084 2.98516 15.15 2.52229 14.5818 2.51948C14.0957 2.51709 13.5799 2.51709 13.0351 2.51709Z" fill="#6895FF"/>
</svg>
