<svg width="27" height="27" viewBox="0 0 27 27" fill="none" xmlns="http://www.w3.org/2000/svg">
<path opacity="0.4" d="M22.206 16.2082C23.1249 16.0311 23.5843 15.9426 23.7418 16.102C23.7604 16.1208 23.7719 16.1346 23.7869 16.1562C23.9155 16.3399 23.7806 16.686 23.5108 17.3783C21.9503 21.3832 18.0561 24.221 13.499 24.221C7.56681 24.221 2.75781 19.412 2.75781 13.4798C2.75781 8.9228 5.59567 5.02856 9.60053 3.46798C10.2927 3.19827 10.6388 3.06341 10.8225 3.19189C10.8441 3.20703 10.8579 3.21854 10.8767 3.23709C11.0362 3.39458 10.9476 3.854 10.7706 4.77283C10.6166 5.5716 10.6169 6.50732 10.6172 7.35764C10.6174 7.90688 10.6174 8.45611 10.6173 9.00535C10.6173 9.26711 10.6173 9.52887 10.6173 9.79063L10.6173 9.87125C10.6171 10.7641 10.617 11.6523 10.7164 12.3915C10.8296 13.2333 11.1089 14.222 11.9328 15.0459C12.7568 15.8699 13.7455 16.1491 14.5872 16.2623C15.3261 16.3617 16.2138 16.3616 17.1061 16.3615C17.1335 16.3615 17.1608 16.3615 17.1881 16.3615H19.5259C19.5575 16.3615 19.5891 16.3615 19.6209 16.3615C20.4713 16.3618 21.4071 16.3621 22.206 16.2082Z" fill="#F6B51E"/>
<path d="M17.4418 3.30177L17.3738 3.27354C16.7147 3.00041 16.1015 2.74623 15.533 2.65476C14.8705 2.54816 14.2655 2.65592 13.6363 3.04444C13.5853 3.07594 13.5098 3.12633 13.4612 3.1614C12.8176 3.62566 12.5087 4.23233 12.3682 4.961C12.2425 5.61357 12.2426 6.42404 12.2427 7.35717V9.70832C12.2426 10.6731 12.2426 11.4762 12.3283 12.1135C12.4186 12.7855 12.6171 13.3902 13.1027 13.8758C13.5883 14.3614 14.1929 14.5599 14.865 14.6503C15.5022 14.7359 16.3053 14.7359 17.2702 14.7358H19.6213C20.5545 14.7359 21.3649 14.7361 22.0175 14.6103C22.7462 14.4698 23.3528 14.1609 23.8172 13.5173C23.8521 13.4687 23.9026 13.3933 23.934 13.3423C24.3226 12.7131 24.4303 12.108 24.3238 11.4455C24.2323 10.8771 23.9781 10.2638 23.705 9.6048L23.6768 9.53668C23.0978 8.13894 22.2491 6.86892 21.1794 5.79913C20.1096 4.72934 18.8395 3.88073 17.4418 3.30177Z" fill="#F6B51E"/>
</svg>
